/* XPM */
static char * logo_xpm[] = {
"32 32 196 2",
"  	c None",
". 	c #05A8F9",
"+ 	c #05A8F8",
"@ 	c #05A8F6",
"# 	c #06A7F4",
"$ 	c #06A7F2",
"% 	c #06A7F0",
"& 	c #06A7EE",
"* 	c #07A6EC",
"= 	c #07A6EA",
"- 	c #07A6E9",
"; 	c #07A6E7",
"> 	c #08A5E5",
", 	c #08A5E3",
"' 	c #08A5E1",
") 	c #08A5DF",
"! 	c #09A4DD",
"~ 	c #09A4DB",
"{ 	c #09A4D9",
"] 	c #0AA4D8",
"^ 	c #0AA4D6",
"/ 	c #0AA3D4",
"( 	c #0AA3D2",
"_ 	c #0BA3D0",
": 	c #0BA3CE",
"< 	c #0BA2CC",
"[ 	c #0BA2CA",
"} 	c #0CA2C9",
"| 	c #0CA2C7",
"1 	c #0CA1C5",
"2 	c #0CA1C3",
"3 	c #0DA1C1",
"4 	c #0DA1BF",
"5 	c #07A6E8",
"6 	c #0BA3D8",
"7 	c #149ECC",
"8 	c #0DA0BD",
"9 	c #0EA1D3",
"0 	c #515151",
"a 	c #0DA0BB",
"b 	c #189CC7",
"c 	c #0EA0BA",
"d 	c #2E90AF",
"e 	c #139DB7",
"f 	c #119EB7",
"g 	c #0EA0B8",
"h 	c #2F8FAC",
"i 	c #1F96AE",
"j 	c #4B7F89",
"k 	c #677072",
"l 	c #45828C",
"m 	c #0E9FB6",
"n 	c #159DC7",
"o 	c #4E7E8C",
"p 	c #647276",
"q 	c #677073",
"r 	c #657174",
"s 	c #0FA0C6",
"t 	c #109FBD",
"u 	c #378A9A",
"v 	c #667173",
"w 	c #6D6D6D",
"x 	c #3E8691",
"y 	c #0F9FB4",
"z 	c #5C767E",
"A 	c #2494B0",
"B 	c #109FBF",
"C 	c #378A9C",
"D 	c #647275",
"E 	c #616161",
"F 	c #646464",
"G 	c #5E7578",
"H 	c #129DB2",
"I 	c #0F9FB2",
"J 	c #0AA3D6",
"K 	c #617479",
"L 	c #2693AD",
"M 	c #0F9FC0",
"N 	c #378A9D",
"O 	c #6C6C6C",
"P 	c #686868",
"Q 	c #6B6B6B",
"R 	c #696969",
"S 	c #677071",
"T 	c #0F9FB0",
"U 	c #5F747A",
"V 	c #49808D",
"W 	c #6A6A6A",
"X 	c #617376",
"Y 	c #189AAC",
"Z 	c #0F9EAE",
"` 	c #139EC7",
" .	c #10A0C8",
"..	c #547A85",
"+.	c #5E5E5E",
"@.	c #2E8F9B",
"#.	c #109EAC",
"$.	c #129FCA",
"%.	c #48707C",
"&.	c #585D5E",
"*.	c #616566",
"=.	c #199BBD",
"-.	c #557780",
";.	c #606060",
">.	c #656565",
",.	c #109EAB",
"'.	c #0CA2D0",
").	c #576063",
"!.	c #575D5F",
"~.	c #5A5E5E",
"{.	c #497B88",
"].	c #3C889B",
"^.	c #676D6F",
"/.	c #696F70",
"(.	c #2195A3",
"_.	c #109EA9",
":.	c #09A5DF",
"<.	c #119FC6",
"[.	c #567983",
"}.	c #189AAA",
"|.	c #109EAA",
"1.	c #109DA7",
"2.	c #119FC8",
"3.	c #3C889D",
"4.	c #61686A",
"5.	c #6C6E6E",
"6.	c #328C97",
"7.	c #119DA5",
"8.	c #149EC7",
"9.	c #428598",
"0.	c #2E8E9A",
"a.	c #119DA3",
"b.	c #139EC9",
"c.	c #428599",
"d.	c #6A6F70",
"e.	c #119DA1",
"f.	c #0AA4D7",
"g.	c #139ECA",
"h.	c #2C8F9B",
"i.	c #119C9F",
"j.	c #3C88A1",
"k.	c #696F71",
"l.	c #507D82",
"m.	c #169BAB",
"n.	c #129C9D",
"o.	c #378BA5",
"p.	c #666666",
"q.	c #636363",
"r.	c #348B97",
"s.	c #129C9B",
"t.	c #5E757C",
"u.	c #676767",
"v.	c #2494A3",
"w.	c #129C9A",
"x.	c #657175",
"y.	c #5D5D5D",
"z.	c #4E7D84",
"A.	c #189AAB",
"B.	c #139B98",
"C.	c #1F98BA",
"D.	c #627377",
"E.	c #5F5F5F",
"F.	c #626262",
"G.	c #647274",
"H.	c #2C8F9D",
"I.	c #139B96",
"J.	c #0BA2CE",
"K.	c #597880",
"L.	c #4F7D83",
"M.	c #189AAD",
"N.	c #139B94",
"O.	c #0CA2C8",
"P.	c #0EA1C5",
"Q.	c #358BA0",
"R.	c #617478",
"S.	c #607478",
"T.	c #46828C",
"U.	c #368A98",
"V.	c #159BB0",
"W.	c #139B92",
"X.	c #0CA1C7",
"Y.	c #109FBE",
"Z.	c #2096AE",
"`.	c #2593A9",
" +	c #119EB9",
".+	c #0EA0B9",
"++	c #149A90",
"@+	c #0EA0BB",
"#+	c #149A8E",
"$+	c #149A8C",
"%+	c #149A8A",
"&+	c #159989",
"*+	c #109EA8",
"=+	c #129C99",
"-+	c #159987",
";+	c #159985",
". + @ # $ % & * = - ; > , ' ) ! ~ { ] ^ / ( _ : < [ } | 1 2 3 4 ",
"+ @ # $ % & * = 5 ; > , ' ) ! ~ 6 7 ^ / ( _ : < [ } | 1 2 3 4 8 ",
"@ # $ % & * = 5 ; > , ' ) ! ~ { 9 0 / ( _ : < [ } | 1 2 3 4 8 a ",
"# $ % & * = 5 ; > , ' ) ! ~ { ] b 0 ( _ : < [ } | 1 2 3 4 8 a c ",
"$ % & * = 5 ; > , ' ) ! ~ { ] ^ d 0 _ : < [ } | 1 2 3 4 8 e f g ",
"% & * = 5 ; > , ' ) ! ~ { ] ^ / h 0 : < [ } | 1 2 3 4 i j k l m ",
"& * = 5 ; > , ' ) ! ~ { ] ^ / n o p q r s | 1 2 3 t u v w w x y ",
"* = 5 ; > , ' ) ! ~ { ] ^ / ( z w w w w A 1 2 B C D w E F G H I ",
"= 5 ; > , ' ) ! ~ { ] J / ( _ K w w w w L M N D w O P Q R S I T ",
"5 ; > , ' ) ! ~ { ] J / ( _ : U w w w w V D w w w O w W X Y T Z ",
"; > , ' ) ! ~ { ] J / ( _ `  ...w w W +.F O W w w w w w @.T Z #.",
"> , ' ) ! ~ { ] J / $.%.&.*.=.-.+.;.;.>.w w w w w w w G T Z #.,.",
", ' ) ! ~ { ] J / '.).!.~.{.].^.P w w w w w w Q w w /.(.Z #.,._.",
"' :.! ~ { ] J / ( _ : <.[.w w w w w w w w w w w w S }.Z #.|._.1.",
":.! ~ { ] J / ( _ 2.3.4.W w w w w w w w w w w w 5.6.Z #.|._.1.7.",
"! ~ { ] J / ( 8.9.q w Q w O w w w w w w w w O Q 0.Z #.|._.1.7.a.",
"~ { ] J / b.c.d.w w w w w w w w w w w w w w 5.0.Z #.|._.1.7.a.e.",
"{ f.J g.c.d.w w w w w w w w w w w w w w w S h.Z #.|._.1.7.a.e.i.",
"f.J j.k.w w w w P E W w w w w w O w w w l.m.Z #.|._.1.7.a.e.i.n.",
"J o.w w w O F ;.p.O w R q.w w w O w /.r.T Z #.|._.1.7.a.e.i.n.s.",
"/ t.w w W ;.q.O w w p.;.P w w w u.X v.T Z #.|._.1.7.a.e.i.n.s.w.",
"( x.w w w >.w w p.;.y.w w w W Q z.A.T Z #.|._.1.7.a.e.i.n.s.w.B.",
"_ C.D.w w Q R u.E.F.w w w w G.H.I T Z #.|._.1.7.a.e.i.n.s.w.B.I.",
"J.< =.K.w w w w w w w w 5.L.M.I T Z #.|._.1.7.a.e.i.n.s.w.B.I.N.",
"< [ O.P.Q.R.w w w S.T.U.V.y I T Z #.|._.1.7.a.e.i.n.s.w.B.I.N.W.",
"[ O.X.1 2 Y.Z.`. +.+g m y I T Z #.|._.1.7.a.e.i.n.s.w.B.I.N.W.++",
"O.X.1 2 3 4 8 @+.+g m y I T Z #.|._.1.7.a.e.i.n.s.w.B.I.N.W.++#+",
"X.1 2 3 4 8 @+.+g m y I T Z #.|._.1.7.a.e.i.n.s.w.B.I.N.W.++#+$+",
"1 2 3 4 8 @+.+g m y I T Z #.|._.1.7.a.e.i.n.s.w.B.I.N.W.++#+$+%+",
"2 3 4 8 @+.+g m y I T Z #.|._.1.7.a.e.i.n.s.w.B.I.N.W.++#+$+%+&+",
"3 4 8 @+.+g m y I T Z #.|.*+1.7.a.e.i.n.s.=+B.I.N.W.++#+$+%+&+-+",
"4 8 @+.+g m y I T Z #.|.*+1.7.a.e.i.n.s.=+B.I.N.W.++#+$+%+&+-+;+"};
